<?xml version="1.0" encoding="utf-8"?>
<!-- Generator: Adobe Illustrator 27.7.0, SVG Export Plug-In . SVG Version: 6.00 Build 0)  -->
<svg version="1.1" id="Capa_1" xmlns="http://www.w3.org/2000/svg" xmlns:xlink="http://www.w3.org/1999/xlink" x="0px" y="0px"
	 viewBox="0 0 36 28" style="enable-background:new 0 0 36 28;" xml:space="preserve">
<style type="text/css">
	.st0{fill:#FFFFFF;}
</style>
<g>
	<path class="st0" d="M34,4H2C0.9,4,0,3.1,0,2s0.9-2,2-2h32c1.1,0,2,0.9,2,2S35.1,4,34,4z"/>
</g>
<g>
	<path class="st0" d="M34,16H2c-1.1,0-2-0.9-2-2c0-1.1,0.9-2,2-2h32c1.1,0,2,0.9,2,2C36,15.1,35.1,16,34,16z"/>
</g>
<g>
	<path class="st0" d="M34,28H2c-1.1,0-2-0.9-2-2s0.9-2,2-2h32c1.1,0,2,0.9,2,2S35.1,28,34,28z"/>
</g>
</svg>
