<?xml version="1.0" encoding="UTF-8"?>
<svg id="Capa_1" data-name="Capa 1" xmlns="http://www.w3.org/2000/svg" viewBox="0 0 42.52 42.52">
  <defs>
    <style>
      .cls-1 {
        fill: #fff;
      }
    </style>
  </defs>
  <path class="cls-1" d="m21.26,0C9.54,0,0,9.54,0,21.26s9.54,21.26,21.26,21.26,21.26-9.54,21.26-21.26S32.98,0,21.26,0Zm0,39.91c-3.91,0-7.54-1.21-10.54-3.28,1.31-4.86,5.53-8.43,10.54-8.43s9.23,3.57,10.54,8.43c-3,2.07-6.63,3.28-10.54,3.28Zm-6.79-21.11c0-3.74,3.04-6.79,6.79-6.79s6.79,3.04,6.79,6.79-3.04,6.79-6.79,6.79-6.79-3.04-6.79-6.79Zm19.51,16.06c-1.33-3.71-4.08-6.7-7.57-8.2,2.56-1.68,4.25-4.57,4.25-7.85,0-5.18-4.22-9.4-9.4-9.4s-9.4,4.22-9.4,9.4c0,3.28,1.69,6.17,4.25,7.85-3.49,1.5-6.25,4.48-7.58,8.19-3.63-3.4-5.91-8.23-5.91-13.59C2.61,10.98,10.98,2.61,21.26,2.61s18.65,8.36,18.65,18.65c0,5.36-2.29,10.19-5.93,13.6Z"/>
</svg>